<svg width="125" height="136" viewBox="0 0 125 136" fill="none" xmlns="http://www.w3.org/2000/svg">
<path d="M4.64941 127.392C4.03418 127.392 3.72656 127.062 3.72656 126.403V109.475C3.72656 108.816 4.03418 108.486 4.64941 108.486H6.65332C7.26855 108.486 7.57617 108.816 7.57617 109.475V115.922H14.6689V109.475C14.6689 108.816 14.9766 108.486 15.5918 108.486H17.5957C18.2109 108.486 18.5186 108.816 18.5186 109.475V126.403C18.5186 127.062 18.2109 127.392 17.5957 127.392H15.5918C14.9766 127.392 14.6689 127.062 14.6689 126.403V119.191H7.57617V126.403C7.57617 127.062 7.26855 127.392 6.65332 127.392H4.64941ZM26.3602 127.392C25.7449 127.392 25.4373 127.062 25.4373 126.403V109.475C25.4373 108.816 25.7449 108.486 26.3602 108.486H28.4959C29.0232 108.486 29.2869 108.816 29.2869 109.475V124.122H36.9729C37.6321 124.122 37.9617 124.408 37.9617 124.979V126.535C37.9617 127.106 37.6321 127.392 36.9729 127.392H26.3602Z" fill="#E96B6B"/>
<path d="M43.6808 125.981C43.1358 125.568 43.004 125.15 43.2853 124.729L44.3004 123.199C44.6344 122.698 45.1222 122.672 45.7638 123.12C46.256 123.463 46.8976 123.819 47.6886 124.188C48.4884 124.548 49.3277 124.729 50.2066 124.729C50.8219 124.729 51.4151 124.658 51.9864 124.518C52.5577 124.377 52.9928 124.104 53.2916 123.7C53.5904 123.296 53.7398 122.817 53.7398 122.263C53.7398 121.868 53.6739 121.521 53.5421 121.222C53.4103 120.923 53.1949 120.677 52.8961 120.483C52.5973 120.29 52.2896 120.127 51.9732 119.996C51.4195 119.767 50.7208 119.543 49.8771 119.323C49.0421 119.095 48.2159 118.822 47.3985 118.506C46.669 118.225 46.0011 117.838 45.3946 117.346C44.7882 116.854 44.318 116.3 43.984 115.685C43.65 115.069 43.483 114.248 43.483 113.219C43.483 111.998 43.8785 110.952 44.6695 110.082C45.4605 109.211 46.3702 108.653 47.3985 108.407C48.4269 108.161 49.464 108.038 50.5099 108.038C51.547 108.038 52.6148 108.196 53.7135 108.513C54.8209 108.829 55.6559 109.225 56.2184 109.699C56.7721 110.165 56.9083 110.587 56.6271 110.965L55.5592 112.402C55.1988 112.894 54.7154 112.934 54.109 112.521C53.7223 112.257 53.1905 111.962 52.5138 111.637C51.8458 111.312 51.1471 111.149 50.4176 111.149C49.899 111.149 49.42 111.193 48.9806 111.281C48.5499 111.369 48.1676 111.58 47.8336 111.914C47.4996 112.248 47.3326 112.661 47.3326 113.153C47.3326 113.628 47.4557 114.015 47.7018 114.313C47.9479 114.604 48.2203 114.823 48.5191 114.973C48.818 115.113 49.1212 115.232 49.4288 115.329C50.378 115.636 51.2262 115.909 51.9732 116.146C52.7203 116.375 53.4103 116.629 54.0431 116.911C54.922 117.306 55.5943 117.702 56.0602 118.097C56.526 118.493 56.9083 119.033 57.2071 119.719C57.5147 120.404 57.6686 121.222 57.6686 122.171C57.6686 123.577 57.2203 124.742 56.3238 125.665C55.4273 126.579 54.4298 127.167 53.3312 127.431C52.2413 127.704 51.1778 127.84 50.1407 127.84C48.6114 127.84 47.3678 127.69 46.4098 127.392C45.4518 127.102 44.5421 126.631 43.6808 125.981ZM64.3236 127.392C63.7084 127.392 63.4008 127.062 63.4008 126.403V109.475C63.4008 108.816 63.7084 108.486 64.3236 108.486H66.3275C66.9428 108.486 67.2504 108.816 67.2504 109.475V115.922H74.3432V109.475C74.3432 108.816 74.6508 108.486 75.266 108.486H77.2699C77.8852 108.486 78.1928 108.816 78.1928 109.475V126.403C78.1928 127.062 77.8852 127.392 77.2699 127.392H75.266C74.6508 127.392 74.3432 127.062 74.3432 126.403V119.191H67.2504V126.403C67.2504 127.062 66.9428 127.392 66.3275 127.392H64.3236ZM84.1359 117.939C84.1359 114.907 84.9182 112.499 86.4826 110.714C88.0471 108.93 90.2795 108.038 93.1799 108.038C96.0803 108.038 98.3127 108.93 99.8772 110.714C101.442 112.499 102.224 114.907 102.224 117.939C102.224 120.971 101.442 123.379 99.8772 125.164C98.3127 126.948 96.0803 127.84 93.1799 127.84C90.2795 127.84 88.0471 126.948 86.4826 125.164C84.9182 123.379 84.1359 120.971 84.1359 117.939ZM88.2492 117.939C88.2492 120.136 88.6403 121.819 89.4226 122.988C90.2136 124.148 91.466 124.729 93.1799 124.729C94.8938 124.729 96.1418 124.148 96.924 122.988C97.715 121.819 98.1105 120.136 98.1105 117.939C98.1105 115.742 97.715 114.063 96.924 112.903C96.1418 111.734 94.8938 111.149 93.1799 111.149C91.466 111.149 90.2136 111.734 89.4226 112.903C88.6403 114.063 88.2492 115.742 88.2492 117.939ZM109.09 127.392C108.475 127.392 108.167 127.062 108.167 126.403V109.475C108.167 108.816 108.475 108.486 109.09 108.486H114.021C117.185 108.486 119.377 109 120.599 110.029C121.83 111.057 122.445 112.516 122.445 114.406C122.445 116.295 121.83 117.754 120.599 118.783C119.377 119.811 117.185 120.325 114.021 120.325H112.017V126.403C112.017 127.062 111.709 127.392 111.094 127.392H109.09ZM112.017 117.108H114.007C115.765 117.108 116.96 116.902 117.593 116.489C118.226 116.067 118.542 115.373 118.542 114.406C118.542 113.439 118.226 112.749 117.593 112.336C116.96 111.914 115.765 111.703 114.007 111.703H112.017V117.108Z" fill="#19AAEB"/>
<path d="M33.7766 74.164C33.7749 74.039 33.7732 73.9139 33.7741 73.792C33.775 73.67 33.7787 73.5452 33.7824 73.4203C33.7871 73.1735 33.8024 72.9331 33.8232 72.6929C33.9493 71.1179 34.3268 69.6216 34.9106 68.2498C35.1805 67.618 35.4933 67.0118 35.8433 66.4368C36.3711 65.5715 36.9895 64.7813 37.6846 64.0746C39.2969 62.4352 41.3128 61.2615 43.5626 60.7549C43.9389 60.6721 44.3173 60.6101 44.7008 60.5603C45.0869 60.5135 45.4806 60.4879 45.8792 60.4803L64.159 60.1712L75.3738 59.9791C75.9389 59.9693 76.4945 60.0039 77.0381 60.0736C80.0199 60.4599 82.6888 62.0058 84.6425 64.2904C86.5963 66.575 87.815 69.5379 87.9593 72.8439C87.9663 72.8829 87.9704 72.9307 87.9661 72.9811C87.9718 73.0676 87.9745 73.157 87.9773 73.2464C87.9968 74.2411 87.9161 75.2109 87.7462 76.1503C87.7106 76.3363 87.675 76.5223 87.634 76.7081C87.445 77.5574 87.1804 78.3799 86.846 79.1638C86.7578 79.3744 86.6616 79.5818 86.5654 79.7892C86.4665 79.9934 86.3622 80.1975 86.2526 80.3954C86.091 80.6923 85.916 80.9798 85.7329 81.264C85.2465 82.0179 84.6883 82.7123 84.0721 83.3389L83.9679 83.4448C82.6437 84.7567 81.0557 85.7604 79.3002 86.3465C78.9392 86.4657 78.5732 86.5669 78.1996 86.6529C77.4497 86.8217 76.672 86.915 75.8802 86.9304L74.2012 86.9602C74.1631 86.9587 74.1251 86.9512 74.0926 86.9439L74.1058 86.9593L46.3802 87.4314C42.7411 87.4945 39.4345 85.8303 37.122 83.1323L37.1114 83.12C35.0996 80.7676 33.8398 77.6274 33.7766 74.164ZM68.0467 84.2665L71.7486 84.203L74.6587 84.1549C77.1756 84.1145 79.4534 83.0378 81.1557 81.3067C83.1114 79.3182 84.3152 76.4629 84.2537 73.309C84.143 67.4095 79.6693 62.7012 74.2612 62.7935L63.942 62.9685L60.6797 63.0231L60.8353 71.4419L61.0771 84.3845L68.0467 84.2665Z" fill="#E96B6B"/>
<path fill-rule="evenodd" clip-rule="evenodd" d="M32.4488 35.8825C29.5168 35.8825 27.1398 38.0219 27.1398 40.6609L27.1398 96.5551C27.1398 99.1942 29.5167 101.334 32.4488 101.334L47.1037 101.334C50.0357 101.334 52.4127 99.1942 52.4127 96.5551L52.4127 88.5579L45.9179 88.6107C41.9272 88.6445 38.287 86.7849 35.7285 83.7999L35.7168 83.7862C33.491 81.1835 32.0835 77.7233 31.9857 73.9198L31.9857 73.9194C31.9828 73.7822 31.9799 73.645 31.9799 73.5112C31.9799 73.3774 31.9829 73.2405 31.986 73.1036L31.986 73.1033C31.989 72.8323 32.0039 72.5685 32.0247 72.3049C32.1501 70.5768 32.5518 68.9375 33.1809 67.4369C33.4717 66.7458 33.8097 66.0832 34.1889 65.4553C34.7607 64.5104 35.4324 63.6488 36.1889 62.8796C37.9438 61.0952 40.1452 59.8261 42.6085 59.2919C43.0205 59.2046 43.435 59.1403 43.8552 59.0893C44.2783 59.0417 44.7099 59.0174 45.147 59.013L52.4127 58.9547L52.4127 40.6609C52.4127 38.0219 50.0357 35.8825 47.1037 35.8825L32.4488 35.8825Z" fill="#19AAEB"/>
<path fill-rule="evenodd" clip-rule="evenodd" d="M89.5725 35.7092C92.5058 35.7092 94.8837 37.8473 94.8837 40.4848L94.8837 96.3846C94.8837 99.0221 92.5058 101.16 89.5725 101.16L74.922 101.16C71.9887 101.16 69.6109 99.0221 69.6109 96.3846L69.6109 88.3837L76.1056 88.4366C80.0963 88.4703 83.7365 86.6107 86.295 83.6257L86.3067 83.6121C88.5325 81.0094 89.94 77.5492 90.0378 73.7457C90.0407 73.6083 90.0436 73.471 90.0436 73.3371C90.0437 73.2034 90.0406 73.0666 90.0376 72.9298L90.0375 72.9291C90.0345 72.6582 90.0196 72.3943 89.9988 72.1308C89.8735 70.4027 89.4717 68.7634 88.8426 67.2627C88.5519 66.5717 88.2138 65.9091 87.8346 65.2812C87.2628 64.3363 86.5911 63.4747 85.8346 62.7055C84.0797 60.921 81.8784 59.652 79.415 59.1178C79.003 59.0305 78.5885 58.9662 78.1683 58.9152C77.7452 58.8676 77.3136 58.8433 76.8765 58.8389L69.6109 58.7806L69.6109 40.4848C69.6108 37.8473 71.9887 35.7092 74.922 35.7092L89.5725 35.7092Z" fill="#19AAEB"/>
<path d="M75.8184 99.2528L75.8311 99.2676L75.9231 99.2685C75.8863 99.267 75.8497 99.2598 75.8184 99.2528Z" fill="#A8D735"/>
<path d="M36.6343 80.56C36.9041 79.9282 37.2169 79.322 37.5669 78.7471C37.2142 79.3189 36.9015 79.9252 36.6343 80.56Z" fill="#A8D735"/>
<path d="M37.5673 78.7483C37.2173 79.3232 36.9045 79.9295 36.6346 80.5612C36.9019 79.9264 37.2146 79.3201 37.5673 78.7483ZM89.6833 85.1554L89.6991 85.1739L89.6901 85.2926C89.6944 85.2422 89.6903 85.1944 89.6833 85.1554Z" fill="#A8D735"/>
</svg>
