<svg width="14" height="14" viewBox="0 0 14 14" fill="none" xmlns="http://www.w3.org/2000/svg">
<path d="M11.7872 0.874023H2.21337C0.992925 0.874023 0 1.94785 0 3.2678V9.31305C0 10.633 0.992925 11.7068 2.21337 11.7068H5.08781L6.63492 12.9047C6.7062 13.0405 6.84691 13.1256 7.00029 13.1256C7.15368 13.1256 7.29439 13.0405 7.36566 12.9047L8.91278 11.7068H11.7872C13.0077 11.7068 14.0006 10.633 14.0006 9.31305V3.2678C14.0006 1.94785 13.0077 0.874023 11.7872 0.874023ZM7.35304 8.63499H3.34654C2.93699 8.63499 2.6038 8.3018 2.6038 7.89225C2.6038 6.78822 3.27956 5.83914 4.23914 5.43666C3.9555 5.15247 3.77988 4.76047 3.77988 4.3282C3.77988 3.46256 4.48413 2.75828 5.34977 2.75828C6.21542 2.75828 6.91967 3.46256 6.91967 4.3282C6.91967 4.76047 6.74402 5.15247 6.46041 5.43666C7.41999 5.83912 8.09574 6.78819 8.09574 7.89223C8.09577 8.30177 7.76259 8.63499 7.35304 8.63499ZM10.9236 7.95349C10.9236 8.12825 10.7106 8.21562 10.4976 8.21562C10.2846 8.21562 10.0716 8.12822 10.0716 7.95349V5.17365L9.91321 5.27197C9.86408 5.30473 9.81492 5.31565 9.77669 5.31565C9.61829 5.31565 9.50906 5.14634 9.50906 4.97705C9.50906 4.86237 9.55821 4.75313 9.66745 4.6876L10.3883 4.25071C10.4321 4.2234 10.4867 4.21247 10.5467 4.21247C10.7215 4.21247 10.9236 4.31624 10.9236 4.48008V7.95349Z" fill="white"/>
</svg>
