<svg width="111" height="110" viewBox="0 0 111 110" fill="none" xmlns="http://www.w3.org/2000/svg">
    <path d="M75.2985 92.5833H36.7855C31.9417 92.5833 28 88.6482 28 83.8111V53.8223C28 48.9858 31.941 45.05 36.7855 45.05H50.2318C50.8122 45.05 51.2831 45.5202 51.2831 46.0998C51.2831 46.6794 50.8122 47.1495 50.2318 47.1495H36.7855C33.1 47.1495 30.1026 50.1424 30.1026 53.8223V83.8111C30.1026 87.491 33.1 90.4839 36.7855 90.4839H75.2985C78.9827 90.4839 81.9807 87.491 81.9807 83.8111V67.5491C81.9807 66.9695 82.4516 66.4993 83.032 66.4993C83.6125 66.4993 84.0833 66.9695 84.0833 67.5491V83.8111C84.0833 88.6476 80.1429 92.5833 75.2992 92.5833H75.2985Z" fill="#DDDDDD"/>
    <path d="M37.3983 47.1475C36.8178 47.1475 36.347 46.6774 36.347 46.0978V35.2828C36.347 24.9261 44.7858 16.5 55.1587 16.5H56.9252C67.2982 16.5 75.737 24.9261 75.737 35.2835V36.5752C75.737 37.1548 75.2661 37.6249 74.6857 37.6249C74.1052 37.6249 73.6344 37.1548 73.6344 36.5752V35.2835C73.6344 26.0839 66.1386 18.5994 56.9252 18.5994H55.1587C45.9454 18.5994 38.4496 26.0839 38.4496 35.2835V46.0984C38.4496 46.678 37.9787 47.1482 37.3983 47.1482V47.1475Z" fill="#DDDDDD"/>
    <path d="M47.3585 47.1494C46.7781 47.1494 46.3073 46.6792 46.3073 46.0997V35.3078C46.3073 30.1746 50.4893 25.9988 55.6303 25.9988H56.4531C61.594 25.9988 65.7761 30.1746 65.7761 35.3078V36.5744C65.7761 37.154 65.3052 37.6241 64.7248 37.6241C64.1443 37.6241 63.6735 37.154 63.6735 36.5744V35.3078C63.6735 31.3324 60.4344 28.0982 56.4531 28.0982H55.6303C51.6489 28.0982 48.4098 31.3324 48.4098 35.3078V46.0997C48.4098 46.6792 47.9397 47.1494 47.3585 47.1494Z" fill="#DDDDDD"/>
    <path d="M64.2479 70.8493C64.0928 70.8493 63.9369 70.815 63.793 70.7464C63.4839 70.598 63.2673 70.3092 63.2112 69.9716L62.1691 63.7261C62.0813 63.2006 61.6309 62.8195 61.0967 62.8195C57.6159 62.8195 54.783 59.9914 54.783 56.5146V47.0717C54.783 43.5949 57.6153 40.7668 61.0967 40.7668H102.353C105.835 40.7668 108.667 43.5949 108.667 47.0717V56.5146C108.667 59.9914 105.835 62.8195 102.353 62.8195H80.4051C79.4138 62.8195 78.4325 63.0746 77.5688 63.5573L64.7617 70.7154C64.6026 70.8044 64.4256 70.8486 64.2479 70.8486V70.8493ZM61.0967 42.8663C58.7742 42.8663 56.8856 44.7534 56.8856 47.0724V56.5152C56.8856 58.8342 58.7742 60.7213 61.0967 60.7213C62.6631 60.7213 63.9858 61.841 64.2427 63.3826L65.0397 68.1551L76.5419 61.7262C77.7194 61.0688 79.0546 60.7213 80.4051 60.7213H102.353C104.675 60.7213 106.565 58.8342 106.565 56.5152V47.0724C106.565 44.7534 104.675 42.8663 102.353 42.8663H61.096H61.0967Z" fill="#DDDDDD"/>
    <path d="M63.439 55.3813C63.0758 55.3813 62.7218 55.1933 62.5277 54.8571C62.2378 54.3546 62.4101 53.7124 62.9127 53.4223L70.9202 48.8067C71.4261 48.5185 72.0673 48.6893 72.3572 49.1911C72.6471 49.6935 72.4754 50.3358 71.9722 50.6259L63.9646 55.2415C63.7982 55.3364 63.618 55.3819 63.4397 55.3819L63.439 55.3813Z" fill="#DDDDDD"/>
    <path d="M67.4428 57.689C66.8623 57.689 66.3915 57.2195 66.3915 56.6393V47.4081C66.3915 46.8279 66.8623 46.3584 67.4428 46.3584C68.0232 46.3584 68.4941 46.8279 68.4941 47.4081V56.6393C68.4941 57.2195 68.0232 57.689 67.4428 57.689Z" fill="#DDDDDD"/>
    <path d="M71.4452 55.3813C71.2669 55.3813 71.086 55.3358 70.9203 55.2408L62.9127 50.6252C62.4108 50.3351 62.2385 49.6929 62.5277 49.1905C62.8183 48.6893 63.4608 48.5179 63.9646 48.806L71.9722 53.4216C72.4754 53.7118 72.6464 54.354 72.3572 54.8564C72.1624 55.1927 71.8091 55.3806 71.4459 55.3806L71.4452 55.3813Z" fill="#DDDDDD"/>
    <path d="M77.722 55.3813C77.3588 55.3813 77.0048 55.1933 76.8107 54.8571C76.5208 54.3546 76.6925 53.7124 77.1957 53.4223L85.2026 48.8067C85.7058 48.5185 86.3496 48.6893 86.6395 49.1911C86.9294 49.6935 86.7577 50.3358 86.2545 50.6259L78.2476 55.2415C78.0812 55.3364 77.9009 55.3819 77.7227 55.3819L77.722 55.3813Z" fill="#DDDDDD"/>
    <path d="M81.7245 57.689C81.144 57.689 80.6732 57.2195 80.6732 56.6393V47.4081C80.6732 46.8279 81.144 46.3584 81.7245 46.3584C82.3049 46.3584 82.7758 46.8279 82.7758 47.4081V56.6393C82.7758 57.2195 82.3049 57.689 81.7245 57.689Z" fill="#DDDDDD"/>
    <path d="M85.7276 55.3813C85.5493 55.3813 85.3683 55.3358 85.2026 55.2408L77.1957 50.6252C76.6925 50.3351 76.5215 49.6929 76.8107 49.1905C77.1013 48.6893 77.7438 48.5179 78.2476 48.806L86.2545 53.4216C86.7577 53.7118 86.9288 54.354 86.6395 54.8564C86.4447 55.1927 86.0914 55.3806 85.7282 55.3806L85.7276 55.3813Z" fill="#DDDDDD"/>
    <path d="M92.0043 55.3813C91.6411 55.3813 91.2872 55.1933 91.093 54.8571C90.8031 54.3546 90.9748 53.7124 91.478 53.4223L99.4849 48.8067C99.9888 48.5185 100.631 48.6893 100.922 49.1911C101.212 49.6935 101.04 50.3358 100.537 50.6259L92.53 55.2415C92.3636 55.3364 92.1833 55.3819 92.005 55.3819L92.0043 55.3813Z" fill="#DDDDDD"/>
    <path d="M96.0068 57.689C95.4263 57.689 94.9555 57.2195 94.9555 56.6393V47.4081C94.9555 46.8279 95.4263 46.3584 96.0068 46.3584C96.5872 46.3584 97.0581 46.8279 97.0581 47.4081V56.6393C97.0581 57.2195 96.5872 57.689 96.0068 57.689Z" fill="#DDDDDD"/>
    <path d="M100.009 55.3813C99.8309 55.3813 99.65 55.3358 99.4843 55.2408L91.4774 50.6252C90.9742 50.3351 90.8031 49.6929 91.0924 49.1905C91.3829 48.6893 92.0255 48.5179 92.5293 48.806L100.536 53.4216C101.039 53.7118 101.21 54.354 100.921 54.8564C100.726 55.1927 100.373 55.3806 100.01 55.3806L100.009 55.3813Z" fill="#DDDDDD"/>
</svg>
