<svg width="32" height="32" viewBox="0 0 32 32" fill="none" xmlns="http://www.w3.org/2000/svg">
<rect width="32" height="32" rx="4" fill="#A50064"/>
<path fill-rule="evenodd" clip-rule="evenodd" d="M22 27C24.7614 27 27 24.7614 27 22C27 19.2386 24.7614 17 22 17C19.2386 17 17 19.2386 17 22C17 24.7614 19.2386 27 22 27ZM22 24C23.1046 24 24 23.1046 24 22C24 20.8954 23.1046 20 22 20C20.8954 20 20 20.8954 20 22C20 23.1046 20.8954 24 22 24Z" fill="white"/>
<path fill-rule="evenodd" clip-rule="evenodd" d="M22 16C24.7614 16 27 13.7614 27 11C27 8.23858 24.7614 6 22 6C19.2386 6 17 8.23858 17 11C17 13.7614 19.2386 16 22 16ZM22 13C23.1046 13 24 12.1046 24 11C24 9.89543 23.1046 9 22 9C20.8954 9 20 9.89543 20 11C20 12.1046 20.8954 13 22 13Z" fill="white"/>
<path fill-rule="evenodd" clip-rule="evenodd" d="M5 20.5C5 18.567 6.567 17 8.5 17C9.24362 17 9.93308 17.2319 10.5 17.6273C11.0669 17.2319 11.7564 17 12.5 17C14.433 17 16 18.567 16 20.5V26H13.6V20.3C13.6 19.8582 13.2418 19.5 12.8 19.5C12.3582 19.5 12 19.8582 12 20.3V26H9.40005V20.3C9.40005 19.8582 9.04188 19.5 8.60005 19.5C8.15822 19.5 7.80005 19.8582 7.80005 20.3V26H5V20.5Z" fill="white"/>
<path fill-rule="evenodd" clip-rule="evenodd" d="M5 9.5C5 7.567 6.567 6 8.5 6C9.24362 6 9.93308 6.23191 10.5 6.62734C11.0669 6.23191 11.7564 6 12.5 6C14.433 6 16 7.567 16 9.5V15H13.6V9.3C13.6 8.85817 13.2418 8.5 12.8 8.5C12.3582 8.5 12 8.85817 12 9.3V15H9.40005V9.3C9.40005 8.85817 9.04188 8.5 8.60005 8.5C8.15822 8.5 7.80005 8.85817 7.80005 9.3V15H5V9.5Z" fill="white"/>
</svg>
