<svg width="32" height="32" viewBox="0 0 32 32" fill="none" xmlns="http://www.w3.org/2000/svg">
<g clip-path="url(#clip0_1_15352)">
<path d="M31.0176 20.5485H4.55525C4.01488 20.5485 3.57275 20.1064 3.57275 19.566V5.15584C3.57275 4.61546 4.01488 4.17334 4.55525 4.17334H31.0176C31.5579 4.17334 32.0001 4.61546 32.0001 5.15584V19.566C32.0001 20.1064 31.5579 20.5485 31.0176 20.5485Z" fill="#317F46"/>
<path d="M29.093 9.08325C28.2533 8.79263 27.5897 8.06519 27.3252 7.14469C27.1734 6.61888 26.73 6.26025 26.2275 6.26025H19.8492H18.281H9.34505C8.84255 6.26025 8.39917 6.61888 8.24729 7.14469C7.98286 8.06513 7.31923 8.79257 6.47948 9.08325C5.99973 9.24888 5.67261 9.73494 5.67261 10.2866V12.3548V12.3673V14.4355C5.67261 14.9871 5.99979 15.4732 6.47948 15.6388C7.31923 15.9294 7.98286 16.6569 8.24729 17.5774C8.39911 18.1032 8.84248 18.4618 9.34505 18.4618H18.281H19.8492H26.2275C26.73 18.4618 27.1734 18.1032 27.3252 17.5774C27.5897 16.6569 28.2533 15.9295 29.093 15.6388C29.5728 15.4732 29.8999 14.9871 29.8999 14.4355V12.3673V12.3548V10.2866C29.9 9.73494 29.5728 9.24888 29.093 9.08325Z" fill="#4CBA68"/>
<path d="M29.3149 24.1516H2.85262C2.31224 24.1516 1.87012 23.7094 1.87012 23.1691V8.75887C1.87012 8.21849 2.31224 7.77637 2.85262 7.77637H29.3149C29.8553 7.77637 30.2974 8.21849 30.2974 8.75887V23.1691C30.2974 23.7094 29.8553 24.1516 29.3149 24.1516Z" fill="#368B4C"/>
<path d="M27.3904 12.6863C26.5507 12.3957 25.887 11.6682 25.6226 10.7477C25.4708 10.2219 25.0274 9.86328 24.5248 9.86328H18.1465H16.5783H7.64241C7.13991 9.86328 6.69653 10.2219 6.54466 10.7477C6.28022 11.6682 5.6166 12.3956 4.77685 12.6863C4.2971 12.8519 3.96997 13.338 3.96997 13.8896V15.9578V15.9703V18.0385C3.96997 18.5902 4.29716 19.0762 4.77685 19.2418C5.6166 19.5325 6.28016 20.2599 6.54466 21.1804C6.69647 21.7062 7.13985 22.0648 7.64241 22.0648H16.5783H18.1465H24.5249C25.0274 22.0648 25.4708 21.7062 25.6227 21.1804C25.8872 20.26 26.5507 19.5325 27.3905 19.2418C27.8702 19.0762 28.1973 18.5902 28.1973 18.0385V15.9703V15.9578V13.8896C28.1973 13.338 27.8702 12.8519 27.3904 12.6863Z" fill="#64C37D"/>
<path d="M27.3904 12.6863C26.5507 12.3957 25.887 11.6682 25.6226 10.7477C25.4708 10.2219 25.0274 9.86328 24.5248 9.86328H18.1465H16.5783H7.64241C7.13991 9.86328 6.69653 10.2219 6.54466 10.7477C6.28022 11.6682 5.6166 12.3956 4.77685 12.6863C4.2971 12.8519 3.96997 13.338 3.96997 13.8896V15.9578V15.9703V18.0385C3.96997 18.5902 4.29716 19.0762 4.77685 19.2418C5.6166 19.5325 6.28016 20.2599 6.54466 21.1804C6.69647 21.7062 7.13985 22.0648 7.64241 22.0648H16.5783H18.1465H24.5249C25.0274 22.0648 25.4708 21.7062 25.6227 21.1804C25.8872 20.26 26.5507 19.5325 27.3905 19.2418C27.8702 19.0762 28.1973 18.5902 28.1973 18.0385V15.9703V15.9578V13.8896C28.1973 13.338 27.8702 12.8519 27.3904 12.6863Z" fill="#64C37D"/>
<path d="M28.4273 12.4342V26.8443C28.4273 27.3847 27.9852 27.8268 27.4448 27.8268H0.9825C0.442125 27.8268 0 27.3847 0 26.8443V12.4342C0 11.8938 0.442125 11.4517 0.9825 11.4517H27.4448C27.9852 11.4517 28.4273 11.8938 28.4273 12.4342Z" fill="#368B4C"/>
<path d="M28.4273 12.4342V26.4513H2.35799C1.81761 26.4513 1.37549 26.0092 1.37549 25.4688V11.4517H27.4448C27.9852 11.4517 28.4273 11.8938 28.4273 12.4342Z" fill="#3FA45A"/>
<path d="M25.5203 16.3616C24.6805 16.0709 24.0169 15.3435 23.7525 14.423C23.6007 13.8972 23.1573 13.5386 22.6547 13.5386H16.2765H14.7082H5.77229C5.26979 13.5386 4.82642 13.8972 4.67454 14.423C4.4101 15.3434 3.74648 16.0709 2.90673 16.3616C2.42698 16.5272 2.09985 17.0133 2.09985 17.5649V19.6331V19.6456V21.7138C2.09985 22.2654 2.42704 22.7515 2.90673 22.9171C3.74648 23.2078 4.41004 23.9352 4.67454 24.8557C4.82635 25.3815 5.26973 25.7401 5.77229 25.7401H14.7082H16.2765H22.6548C23.1573 25.7401 23.6007 25.3815 23.7525 24.8557C24.017 23.9353 24.6806 23.2078 25.5204 22.9171C26.0001 22.7515 26.3272 22.2654 26.3272 21.7138V19.6456V19.6331V17.5649C26.3272 17.0133 26 16.5272 25.5203 16.3616Z" fill="#95D6A6"/>
<path d="M14.2137 23.4259C16.305 23.4259 18.0004 21.7306 18.0004 19.6392C18.0004 17.5479 16.305 15.8525 14.2137 15.8525C12.1224 15.8525 10.427 17.5479 10.427 19.6392C10.427 21.7306 12.1224 23.4259 14.2137 23.4259Z" fill="#368B4C"/>
<path d="M14.2136 22.7207C14.485 22.7207 14.7049 22.5007 14.7049 22.2294V21.9099C15.2463 21.7112 15.6336 21.1907 15.6336 20.5812C15.6336 19.8049 15.0049 19.1725 14.2298 19.1667L14.2201 19.1663C14.217 19.1662 14.2139 19.1661 14.2108 19.166C13.9811 19.1613 13.787 18.9537 13.787 18.7129C13.787 18.4777 13.9783 18.2838 14.209 18.2809L14.2118 18.2809C14.448 18.2828 14.6401 18.4767 14.6401 18.7129C14.6401 18.9842 14.8601 19.2042 15.1314 19.2042C15.4027 19.2042 15.6226 18.9842 15.6226 18.7129C15.6226 18.1111 15.241 17.5949 14.7048 17.3916V17.0494C14.7048 16.778 14.4848 16.5581 14.2135 16.5581C13.9422 16.5581 13.7223 16.778 13.7223 17.0494V17.3907C13.1876 17.5935 12.8043 18.1109 12.8043 18.7128C12.8043 19.4865 13.4233 20.1293 14.185 20.1482L14.1994 20.1487C14.206 20.149 14.2125 20.1491 14.2189 20.1491C14.4571 20.1491 14.651 20.3429 14.651 20.5812C14.651 20.8194 14.4572 21.0132 14.2175 21.0132H14.208C13.9698 21.0132 13.776 20.8194 13.776 20.5811C13.776 20.3098 13.556 20.0899 13.2847 20.0899C13.0134 20.0899 12.7935 20.3098 12.7935 20.5811C12.7935 21.1902 13.1805 21.7107 13.7222 21.9095V22.2293C13.7223 22.5008 13.9423 22.7207 14.2136 22.7207Z" fill="#2C733F"/>
</g>
<defs>
<clipPath id="clip0_1_15352">
<rect width="32" height="32" fill="white"/>
</clipPath>
</defs>
</svg>
